<?xml version="1.0" encoding="iso-8859-1"?>
<!-- Uploaded to: SVG Repo, www.svgrepo.com, Generator: SVG Repo Mixer Tools -->
<svg height="800px" width="800px" version="1.1" id="Layer_1" xmlns="http://www.w3.org/2000/svg" xmlns:xlink="http://www.w3.org/1999/xlink" 
	 viewBox="0 0 511.998 511.998" xml:space="preserve">
<path style="fill:#FFF173;" d="M271.44,308.729H183.3V69.214c0-17.121-13.88-31.001-31.001-31.001s-31.001,13.88-31.001,31.001
	v239.515H33.157c-12.679,0-22.957,10.279-22.957,22.957c0,6.089,2.418,11.928,6.724,16.233l119.141,119.142
	c4.483,4.483,10.358,6.724,16.233,6.724c5.875,0,11.751-2.242,16.233-6.724l119.142-119.142c4.305-4.305,6.724-10.144,6.724-16.233
	C294.397,319.008,284.119,308.729,271.44,308.729z"/>
<g>
	<path style="fill:#248A9C;" d="M152.298,483.985c-8.857,0-17.183-3.449-23.445-9.711L9.711,355.132
		C3.449,348.87,0,340.543,0,331.686c0-18.283,14.873-33.157,33.157-33.157h77.941V69.214c0-22.718,18.482-41.201,41.201-41.201
		s41.201,18.483,41.201,41.201V298.53h77.941c18.283,0,33.157,14.874,33.157,33.157c0,8.856-3.448,17.182-9.711,23.445
		L175.745,474.274C169.481,480.535,161.155,483.985,152.298,483.985z M33.157,318.928c-7.035,0-12.758,5.724-12.758,12.758
		c0,3.409,1.327,6.612,3.737,9.022l119.141,119.141c2.409,2.41,5.614,3.737,9.021,3.737c3.409,0,6.612-1.327,9.022-3.737
		l119.141-119.141c2.409-2.409,3.737-5.615,3.737-9.022c0-7.034-5.723-12.758-12.758-12.758H183.3
		c-5.632,0-10.199-4.567-10.199-10.199V69.214c0-11.471-9.331-20.802-20.802-20.802c-11.47,0-20.802,9.331-20.802,20.802v239.515
		c0,5.632-4.567,10.199-10.199,10.199H33.157z"/>
	<path style="fill:#248A9C;" d="M228.462,374.31c-2.611,0-5.22-0.996-7.212-2.987c-3.983-3.983-3.983-10.441,0-14.425l2.008-2.008
		c3.984-3.982,10.44-3.982,14.425,0c3.983,3.983,3.983,10.441,0,14.425l-2.008,2.008C233.682,373.313,231.073,374.31,228.462,374.31
		z"/>
	<path style="fill:#248A9C;" d="M154.008,448.764c-2.611,0-5.22-0.996-7.212-2.987c-3.983-3.983-3.983-10.441,0-14.425
		l52.867-52.867c3.984-3.982,10.44-3.982,14.425,0c3.983,3.983,3.983,10.441,0,14.425l-52.867,52.867
		C159.228,447.767,156.619,448.764,154.008,448.764z"/>
</g>
<path style="fill:#FFF173;" d="M240.56,203.269H328.7v239.515c0,17.121,13.88,31.001,31.001,31.001
	c17.121,0,31.001-13.88,31.001-31.001V203.269h88.139c12.679,0,22.957-10.279,22.957-22.957c0-6.089-2.418-11.928-6.724-16.233
	L375.935,44.937c-4.483-4.483-10.358-6.724-16.233-6.724s-11.75,2.242-16.233,6.724L224.326,164.078
	c-4.305,4.305-6.724,10.144-6.724,16.233C217.603,192.99,227.881,203.269,240.56,203.269z"/>
<path style="fill:#248A9C;" d="M359.702,483.985c-22.718,0-41.201-18.483-41.201-41.201V213.468H240.56
	c-18.283,0-33.157-14.873-33.157-33.157c0-8.856,3.448-17.182,9.711-23.445L336.255,37.724c6.263-6.262,14.59-9.711,23.446-9.711
	s17.183,3.449,23.445,9.711l119.141,119.141c6.262,6.263,9.711,14.59,9.711,23.446c0,18.283-14.874,33.157-33.157,33.157H400.9
	v229.316C400.902,465.502,382.42,483.985,359.702,483.985z M359.702,48.412c-3.409,0-6.612,1.327-9.022,3.737L231.539,171.29
	c-2.409,2.409-3.737,5.615-3.737,9.022c0,7.034,5.723,12.758,12.758,12.758h88.141c5.632,0,10.199,4.567,10.199,10.199v239.515
	c0,11.471,9.331,20.802,20.802,20.802c11.47,0,20.802-9.331,20.802-20.802V203.269c0-5.632,4.567-10.199,10.199-10.199h88.141
	c7.034,0,12.758-5.723,12.758-12.758c0-3.409-1.327-6.612-3.737-9.022L368.723,52.149C366.314,49.738,363.11,48.412,359.702,48.412z
	"/>
</svg>